<svg width="36" height="36" viewBox="0 0 36 36" fill="none" xmlns="http://www.w3.org/2000/svg">
<path d="M3.7558 3.20306C3.39335 3.57299 3.18359 4.14893 3.18359 4.8948V31.4995C3.18359 32.2454 3.39335 32.8213 3.7558 33.1912L3.84525 33.2724L19.1359 18.3701V18.0182L3.84525 3.11584L3.7558 3.20306Z" fill="#403F3D"/>
<path d="M26.0776 23.34L20.9863 18.37V18.0182L26.0837 13.0482L26.1979 13.1129L32.2345 16.4618C33.9573 17.4121 33.9573 18.9761 32.2345 19.9325L26.1979 23.2753L26.0776 23.34Z" fill="#403F3D"/>
<path d="M25.2733 24.2008L20.0617 19.1195L4.68164 34.1166C5.25384 34.7031 6.18695 34.7738 7.24807 34.1873L25.2733 24.2008Z" fill="#403F3D"/>
<path d="M25.2733 12.1875L7.24807 2.201C6.18695 1.62055 5.25384 1.69122 4.68164 2.27769L20.0617 17.2688L25.2733 12.1875Z" fill="#403F3D"/>
</svg>
